<?xml version="1.0" encoding="UTF-8"?>
<svg width="1024px" height="1024px" viewBox="0 0 1024 1024" version="1.1" xmlns="http://www.w3.org/2000/svg" xmlns:xlink="http://www.w3.org/1999/xlink">
    <!-- Generator: Sketch 52.5 (67469) - http://www.bohemiancoding.com/sketch -->
    <title>看书@1x</title>
    <desc>Created with Sketch.</desc>
    <defs>
        <path d="M74.3683402,44.885091 C74.3683402,44.885091 83.2682094,69.5592288 92.1680785,171.602001" id="path-1"></path>
        <filter x="-181.9%" y="-16.1%" width="461.8%" height="150.8%" filterUnits="objectBoundingBox" id="filter-2">
            <feMorphology radius="1.85895" operator="dilate" in="SourceAlpha" result="shadowSpreadOuter1"></feMorphology>
            <feOffset dx="0" dy="12" in="shadowSpreadOuter1" result="shadowOffsetOuter1"></feOffset>
            <feMorphology radius="1.85895" operator="erode" in="SourceAlpha" result="shadowInner"></feMorphology>
            <feOffset dx="0" dy="12" in="shadowInner" result="shadowInner"></feOffset>
            <feComposite in="shadowOffsetOuter1" in2="shadowInner" operator="out" result="shadowOffsetOuter1"></feComposite>
            <feGaussianBlur stdDeviation="8" in="shadowOffsetOuter1" result="shadowBlurOuter1"></feGaussianBlur>
            <feColorMatrix values="0 0 0 0 0.53345557   0 0 0 0 0.53345557   0 0 0 0 0.53345557  0 0 0 0.5 0" type="matrix" in="shadowBlurOuter1"></feColorMatrix>
        </filter>
    </defs>
    <g id="看书" stroke="none" stroke-width="1" fill="none" fill-rule="evenodd">
        <g id="Group-24" transform="translate(219.000000, 123.000000)">
            <g id="Group-18">
                <path d="M289.788122,743.303886 C219.870752,743.303886 163.203319,684.370815 163.203319,611.685589 C163.203319,539.000363 219.870752,480.078347 289.788122,480.078347 C359.694477,480.078347 414.42689,506.75929 414.42689,611.691116 C414.42689,716.622943 359.694477,743.303886 289.788122,743.303886 Z" id="Combined-Shape" stroke="#000000" stroke-width="5.00627132" fill="#FEFEFE" stroke-linecap="round" stroke-linejoin="round"></path>
                <path d="M305.489792,641.232824 C304.002891,641.918221 302.240639,641.254934 301.56878,639.773593 L289.816758,614.104377 L278.009666,639.90625 C277.326794,641.398646 275.553527,642.061934 274.07764,641.376537 C272.601754,640.69114 271.940909,638.922374 272.623782,637.429978 L286.964112,606.067546 C287.250478,605.459533 287.724084,604.995232 288.285802,604.696753 C288.406956,604.619369 288.528111,604.530931 288.671294,604.475657 C290.147181,603.79026 291.920447,604.442492 292.592306,605.934889 L306.94365,637.29732 C307.626523,638.778662 306.976693,640.547428 305.489792,641.232824 M289.849801,595.156471 C268.317277,595.156471 256.488157,606.697669 256.488157,624.783301 C256.488157,642.393577 268.89001,654.354857 290.003998,654.354857 C311.07393,654.354857 323.090289,642.692056 323.090289,624.783301 C323.090289,606.067546 310.853648,595.156471 289.849801,595.156471" id="Fill-32" fill="#30A0D2"></path>
                <g id="Group-17" transform="translate(291.194327, 293.564469) rotate(3.000000) translate(-291.194327, -293.564469) translate(14.779233, 14.919079)">
                    <path d="M482.935396,95.4082312 C490.513082,86.8076067 495.150009,75.5317237 495.150009,63.1393072 C495.150009,36.2098454 473.408218,14.3655858 446.555895,14.3655858 C430.508383,14.3655858 416.32225,22.2144848 407.466931,34.2531481 C368.22377,12.6299842 323.165175,0.314951204 275.24292,0.314951204 C224.798441,0.314951204 177.548045,14.0007778 136.895082,37.7796252 C128.370185,23.762155 113.01656,14.3655858 95.4491046,14.3655858 C68.6077956,14.3655858 46.8549908,36.2098454 46.8549908,63.1393072 C46.8549908,77.853229 53.3643111,91.0084258 63.6294322,99.9517487 C23.9016515,147.830032 0.00110140784,209.394143 0.00110140784,276.574085 C0.00110140784,429.141204 123.22661,552.822163 275.24292,552.822163 C427.248216,552.822163 550.473724,429.141204 550.473724,276.574085 C550.473724,207.238459 524.965119,143.916638 482.935396,95.4082312" id="Fill-13" stroke="#000000" stroke-width="5.00627132" fill="#FEFEFE"></path>
                    <path d="M347.795396,331.39892 C347.795396,379.465135 312.274993,418.422205 268.449976,418.422205 C224.624958,418.422205 189.104555,379.465135 189.104555,331.39892 C189.104555,283.332705 224.624958,244.375634 268.449976,244.375634 C312.274993,244.375634 347.795396,283.332705 347.795396,331.39892" id="Fill-16" fill="#EEEEEE"></path>
                    <path d="M349.645761,241.481491 C349.645761,251.928265 341.208977,260.396232 330.800673,260.396232 C320.392369,260.396232 311.944571,251.928265 311.944571,241.481491 C311.944571,231.034717 320.392369,222.56675 330.800673,222.56675 C341.208977,222.56675 349.645761,231.034717 349.645761,241.481491" id="Fill-18" fill="#070102"></path>
                    <path d="M226.371791,241.481491 C226.371791,251.928265 217.935007,260.396232 207.526702,260.396232 C197.118398,260.396232 188.681614,251.928265 188.681614,241.481491 C188.681614,231.034717 197.118398,222.56675 207.526702,222.56675 C217.935007,222.56675 226.371791,231.034717 226.371791,241.481491" id="Fill-20" fill="#070102"></path>
                    <path d="M270.126318,381.226162 C252.95537,381.226162 234.947352,375.555056 216.575869,364.378667 C214.218856,362.941544 213.469899,359.868313 214.890715,357.502589 C216.322545,355.147919 219.406487,354.396194 221.730458,355.822261 C238.526927,366.036885 254.805735,371.22158 270.126318,371.22158 C285.336761,371.22158 300.40402,366.103213 314.898547,355.988083 C317.156433,354.429358 320.262403,354.971043 321.837416,357.248329 C323.412429,359.525615 322.850711,362.63201 320.581811,364.212845 C304.380102,375.499783 287.407407,381.226162 270.126318,381.226162" id="Fill-22" fill="#232323"></path>
                    <path d="M128.385042,360.099358 C152.968465,360.099358 172.903947,340.090193 172.903947,315.415908 C172.903947,290.741623 152.968465,270.743513 128.385042,270.743513 C103.812633,270.743513 83.8771516,290.741623 83.8771516,315.415908 C83.8771516,340.090193 103.812633,360.099358 128.385042,360.099358" id="Fill-24" fill="#F7CCD1"></path>
                    <path d="M409.857525,360.099358 C434.429934,360.099358 454.365416,340.090193 454.365416,315.415908 C454.365416,290.741623 434.429934,270.743513 409.857525,270.743513 C385.274102,270.743513 365.33862,290.741623 365.33862,315.415908 C365.33862,340.090193 385.274102,360.099358 409.857525,360.099358" id="Fill-26" fill="#F7CCD1"></path>
                    <path d="M269.793693,379.963706 C267.040174,379.963706 264.81533,377.719584 264.81533,374.966942 L264.81533,284.914645 C264.81533,282.162003 267.040174,279.917881 269.793693,279.917881 C272.547213,279.917881 274.772057,282.162003 274.772057,284.914645 L274.772057,374.966942 C274.772057,377.719584 272.547213,379.963706 269.793693,379.963706" id="Fill-28" fill="#232323"></path>
                    <path d="M279.237164,286.288755 L287.068174,272.945627 C291.859298,264.787194 285.867639,254.583625 276.274377,254.583625 L260.634386,254.583625 C251.030109,254.583625 245.049465,264.787194 249.840589,272.945627 L257.671598,286.288755 C262.462723,294.458243 274.435026,294.458243 279.237164,286.288755" id="Fill-30" fill="#060101"></path>
                    <path d="M72.8135282,88.5034774 C67.9777462,82.5188981 65.0831904,74.9101295 65.0831904,66.6274588 C65.0831904,47.3528331 80.7583888,31.7276617 100.094726,31.7276617 C110.813073,31.7276617 120.406495,36.5286648 126.828781,44.0909896 C106.992259,56.6110529 88.8475626,71.5543816 72.8135282,88.5034774 Z" id="Combined-Shape-Copy-8" fill="#D8D8D8"></path>
                    <path d="M428.267876,85.1637235 C423.432094,79.1791442 420.537538,71.5703756 420.537538,63.2877049 C420.537538,44.0130792 436.212736,28.3879078 455.549074,28.3879078 C466.26742,28.3879078 475.860843,33.1889109 482.283129,40.7512357 C462.446606,53.271299 444.30191,68.2146277 428.267876,85.1637235 Z" id="Combined-Shape-Copy-9" fill="#D8D8D8" transform="translate(451.410333, 56.775816) scale(-1, 1) translate(-451.410333, -56.775816) "></path>
                </g>
                <g id="Group-16" transform="translate(138.916304, 487.282378)">
                    <path d="M168.561712,28.415755 C187.264403,53.5465413 190.813702,105.160799 186.902765,152.155091 C185.818588,151.918546 180.980802,151.918546 172.389408,152.155091 L162.953228,35.3785769 C162.669243,30.393496 164.538737,28.0725554 168.561712,28.415755 Z" id="Path-20" stroke="#000000" stroke-width="3.7179" fill="#FFFFFF"></path>
                    <path d="M0.0567050583,14.6249083 C0.0567050583,0.404082449 11.6479579,-1.39317055 20.7418956,1.16412149 C28.6503663,4.81810886 62.4335812,14.1669515 78.8095438,32.5724976 C106.936405,23.5702612 133.148672,20.1503314 157.446346,22.3127085 C175.415907,25.0153307 172.396376,45.5291348 168.293659,46.7942554 C139.238789,53.252789 115.765366,34.9749689 76.8446533,48.3661049 C50.6201665,30.8209426 7.6140181,16.5804051 0.0567050583,14.6249083 Z" id="Path-15" stroke="#000000" stroke-width="3.7179" fill="#FFFFFF"></path>
                    <path d="M0,15.4458033 C3.58917619,49.567845 8.8300443,105.523057 18.36066,133.200206 C66.202551,153.662865 58.6994631,146.644593 91.3946635,169.882334 C100.79901,174.09654 106.199211,138.027053 175.692235,152.51135 C176.500197,152.679752 172.388006,53.8938735 166.018878,41.2827262 C151.367311,32.6577403 120.513188,33.5215293 73.4565088,43.8740932 C31.9168141,14.2452481 7.4313112,4.76915153 0,15.4458033 Z" id="Path-9" stroke="#000000" stroke-width="3.7179" fill="#DE4D55"></path>
                    <g id="Path-21">
                        <use fill="black" fill-opacity="1" filter="url(#filter-2)" xlink:href="#path-1"></use>
                        <use stroke="#000000" stroke-width="3.7179" xlink:href="#path-1"></use>
                    </g>
                </g>
                <ellipse id="Oval-2" stroke="#000000" stroke-width="4.907628" fill="#FFFFFF" cx="155.453959" cy="586.390658" rx="34.729076" ry="34.6878981"></ellipse>
                <path d="M385.391236,549.477966 C390.558771,548.209819 397.011235,545.229708 404.748628,540.537632 C438.824763,611.27686 432.372299,650.247335 385.391236,657.449057 C239.519614,679.809702 295.346362,595.439882 352.336161,594.558487" id="Path-22" stroke="#000000" stroke-width="4.907628" fill="#FFFFFF" stroke-linecap="round" stroke-linejoin="round"></path>
                <path d="M171.360163,659.543502 C177.226636,669.624109 178.789263,676.042235 176.048043,678.79788 C171.936214,682.931347 155.912043,691.926514 143.494748,692.665141 C131.077454,693.403767 124.639224,674.902108 110.763606,678.79788 C96.8879885,682.693652 93.7195575,694.641789 96.8879885,718.443109 C100.05642,742.24443 117.306478,768.529782 149.945109,761.564989 C171.704196,756.921794 204.264776,751.702295 247.62685,745.90649" id="Path-23" stroke="#000000" stroke-width="4.907628" fill="#FFFFFF"></path>
                <path d="M127.339945,697.061571 C131.870798,704.79025 138.806305,717.359702 136.766654,754.252495" id="Path-25" stroke="#000000" stroke-width="4.907628" opacity="0.600000024" stroke-linecap="round" stroke-linejoin="round"></path>
                <path d="M289.744356,695.517209 C271.784646,707.788475 259.304176,715.473943 252.302944,718.573611 C241.801096,723.223114 231.874474,703.589034 213.782038,712.328438 C195.689602,721.067841 196.876302,762.272871 231.639392,771.959584 C304.065243,793.988716 382.599481,740.515741 395.634803,695.517209" id="Path-24" stroke="#000000" stroke-width="4.907628" fill="#FFFFFF" stroke-linecap="round" stroke-linejoin="round"></path>
                <path d="M234.834704,721.838641 C239.365557,728.088855 246.301064,738.253821 244.261413,768.089172" id="Path-25-Copy" stroke="#000000" stroke-width="4.907628" opacity="0.600000024" stroke-linecap="round" stroke-linejoin="round"></path>
            </g>
        </g>
    </g>
</svg>