<?xml version="1.0" encoding="UTF-8"?>
<svg width="1024px" height="1024px" viewBox="0 0 1024 1024" version="1.1" xmlns="http://www.w3.org/2000/svg" xmlns:xlink="http://www.w3.org/1999/xlink">
    <!-- Generator: Sketch 52.5 (67469) - http://www.bohemiancoding.com/sketch -->
    <title>抱眼镜@1x</title>
    <desc>Created with Sketch.</desc>
    <g id="抱眼镜" stroke="none" stroke-width="1" fill="none" fill-rule="evenodd">
        <g id="Group-5" transform="translate(233.000000, 122.000000)">
            <path d="M383.574796,528.710318 C413.228662,517.116509 473.735628,492.051865 502.744608,502.561472 C519.272568,508.538972 524.171808,534.802407 505.623888,552.138263 C482.633802,573.614207 444.705883,584.424377 410.165394,589.827588 C411.261157,596.745248 411.830784,603.843937 411.830784,611.079068 C411.830784,632.741982 406.724188,653.181719 397.678362,671.201509 C394.971189,683.960684 380.761666,751.609283 381.892968,760.559666 C383.131728,770.448507 383.756688,779.099862 371.279808,779.718605 C358.802928,780.337348 322.611048,779.718605 314.497728,779.718605 C314.497728,779.718605 305.670168,779.265596 304.051968,767.8078 C303.527435,764.090222 302.138706,753.754228 300.501145,741.481088 C294.960697,742.230504 289.308807,742.617221 283.568904,742.617221 C277.942835,742.617221 272.401437,742.245808 266.966745,741.525588 C265.333417,753.779207 263.949854,764.094716 263.429568,767.8078 C261.811368,779.265596 252.972648,779.718605 252.972648,779.718605 C244.870488,779.718605 208.678608,780.337348 196.201728,779.718605 C183.713688,779.099862 184.338648,770.448507 185.588568,760.559666 C186.679151,751.8537 173.272625,687.611614 170.049721,672.367279 C160.635861,654.065274 155.307024,633.2105 155.307024,611.079068 C155.307024,604.034616 155.846917,597.11951 156.886592,590.374902 C121.40796,585.167501 81.6155708,574.365328 57.826656,552.138263 C39.267576,534.802407 44.166816,508.538972 60.694776,502.561472 C89.911656,491.976545 151.079616,517.4776 180.497376,528.957494 L181.935035,530.825925 C205.387067,499.634402 242.187616,479.540914 283.568904,479.540914 C324.000544,479.540914 360.065171,498.728789 383.574796,528.710318 Z" id="Combined-Shape" stroke="#000000" stroke-width="5.22" fill="#FEFEFE"></path>
            <path d="M298.257696,624.880353 C297.052416,625.421754 295.612776,624.891402 295.054776,623.698112 L285.468336,603.036512 L275.826096,623.808602 C275.268096,625.012941 273.839616,625.543292 272.623176,624.990843 C271.417896,624.438394 270.882216,623.013075 271.429056,621.819785 L283.147056,596.561808 C283.370256,596.075652 283.760856,595.699987 284.207256,595.456909 C284.318856,595.401664 284.419296,595.33537 284.530896,595.280125 C285.736176,594.727676 287.186976,595.258027 287.744976,596.451318 L299.440656,621.698246 C299.998656,622.902585 299.462976,624.327904 298.257696,624.880353 M285.490656,587.777865 C267.913656,587.777865 258.260256,597.070061 258.260256,611.632622 C258.260256,625.808468 268.382376,635.443182 285.613416,635.443182 C302.810976,635.443182 312.620616,626.051546 312.620616,611.632622 C312.620616,596.561808 302.643576,587.777865 285.490656,587.777865" id="Fill-11" fill="#30A0D2"></path>
            <path d="M489.420205,95.0543715 C531.995925,143.533119 557.77122,206.858319 557.77122,276.141273 C557.77122,428.628301 432.91314,552.255382 278.88282,552.255382 C124.86366,552.255382 0.00558,428.628301 0.00558,276.141273 C0.00558,209.016905 24.1997807,147.484832 64.4253613,99.6285604 C54.0404989,90.6915808 47.475756,77.5169053 47.475756,62.8218547 C47.475756,35.8954809 69.516756,14.0737376 96.713676,14.0737376 C114.486578,14.0737376 130.065383,23.4003336 138.722783,37.3825043 C179.904573,13.6321695 227.789126,0.0271642725 278.88282,0.0271642725 C327.430976,0.0271642725 373.081102,12.3085297 412.837161,33.9039889 C421.802831,21.8749156 436.220906,14.0737376 452.4822,14.0737376 C479.66796,14.0737376 501.72012,35.8954809 501.72012,62.8218547 C501.72012,75.1800217 497.07493,86.4629208 489.420205,95.0543715 Z" id="Combined-Shape" stroke="#000000" stroke-width="5.22" fill="#FEFEFE"></path>
            <path d="M364.138524,274.808766 C364.138524,322.849748 328.136364,361.786367 283.741884,361.786367 C239.336244,361.786367 203.345244,322.849748 203.345244,274.808766 C203.345244,226.767783 239.336244,187.831164 283.741884,187.831164 C328.136364,187.831164 364.138524,226.767783 364.138524,274.808766" id="Fill-20" fill="#EEEEEE"></path>
            <path d="M366.530356,185.015923 C366.530356,195.457212 357.981796,203.920734 347.435596,203.920734 C336.889396,203.920734 328.340836,195.457212 328.340836,185.015923 C328.340836,174.574633 336.889396,166.111111 347.435596,166.111111 C357.981796,166.111111 366.530356,174.574633 366.530356,185.015923" id="Fill-24" fill="#050101"></path>
            <path d="M240.935501,185.015923 C240.935501,195.457212 232.386941,203.920734 221.840741,203.920734 C211.294541,203.920734 202.745981,195.457212 202.745981,185.015923 C202.745981,174.574633 211.294541,166.111111 221.840741,166.111111 C232.386941,166.111111 240.935501,174.574633 240.935501,185.015923" id="Fill-24-Copy" fill="#050101"></path>
            <path d="M285.441552,324.609851 C268.031952,324.609851 249.785352,318.941722 231.181632,307.771199 C228.793392,306.334832 228.023352,303.263214 229.474152,300.898731 C230.913792,298.534249 234.038592,297.793967 236.404512,299.219286 C253.423512,309.428547 269.906832,314.61052 285.441552,314.61052 C300.853512,314.61052 316.109232,309.494841 330.795792,299.385021 C333.094752,297.827114 336.241872,298.368514 337.826592,300.644605 C339.422472,302.909646 338.853312,306.02546 336.565512,307.605465 C320.149152,318.886477 302.951592,324.609851 285.441552,324.609851" id="Fill-26" fill="#232323"></path>
            <path d="M141.82128,303.494138 C166.7304,303.494138 186.93,283.495477 186.93,258.834145 C186.93,234.172812 166.7304,214.185201 141.82128,214.185201 C116.91216,214.185201 96.71256,234.172812 96.71256,258.834145 C96.71256,283.495477 116.91216,303.494138 141.82128,303.494138" id="Fill-28" fill="#F7CCD1"></path>
            <path d="M427.011732,303.494138 C451.920852,303.494138 472.120452,283.495477 472.120452,258.834145 C472.120452,234.172812 451.920852,214.185201 427.011732,214.185201 C402.102612,214.185201 381.903012,234.172812 381.903012,258.834145 C381.903012,283.495477 402.102612,303.494138 427.011732,303.494138" id="Fill-30" fill="#F7CCD1"></path>
            <path d="M283.685456,323.346952 C280.906616,323.346952 278.641136,321.104008 278.641136,318.341762 L278.641136,228.347788 C278.641136,225.585542 280.906616,223.353647 283.685456,223.353647 C286.475456,223.353647 288.740936,225.585542 288.740936,228.347788 L288.740936,318.341762 C288.740936,321.104008 286.475456,323.346952 283.685456,323.346952" id="Fill-32" fill="#232323"></path>
            <path d="M294.671988,229.722282 L302.595588,216.386158 C307.461348,208.232008 301.390308,198.022747 291.658788,198.022747 L275.811588,198.022747 C266.091228,198.022747 260.031348,208.232008 264.885948,216.386158 L272.809548,229.722282 C277.675308,237.887481 289.806228,237.887481 294.671988,229.722282" id="Fill-34" fill="#060101"></path>
            <path d="M121.931928,548.810309 C120.425328,551.870877 109.187208,549.506395 96.844248,543.539943 C84.501288,537.573492 75.696048,530.259065 77.202648,527.198496 C78.720408,524.137928 89.947368,526.50241 102.301488,532.468861 C114.655608,538.435313 123.449688,545.74974 121.931928,548.810309" id="Fill-36" fill="#CBCBCB"></path>
            <path d="M503.976672,515.588224 C506.242152,518.140539 499.713552,527.499028 489.379392,536.470803 C479.067552,545.453627 468.856152,550.657699 466.579512,548.094335 C464.314032,545.542019 470.842632,536.194579 481.176792,527.211755 C491.499792,518.23998 501.711192,513.035908 503.976672,515.588224" id="Fill-38" fill="#CBCBCB"></path>
            <path d="M169.460136,399.589361 C151.581816,400.197055 139.651776,400.859994 127.755216,402.064333 C116.394336,403.213428 105.089256,404.682943 94.241736,408.428548 C76.541976,414.538636 69.366096,424.449575 69.511176,442.945574 C69.678576,464.347456 74.946096,484.710733 83.048256,504.377925 C90.346896,522.089446 103.805856,533.13843 122.320296,538.187816 C138.881736,542.695801 155.733336,543.679161 172.718856,541.480413 C192.951936,538.872853 210.685176,530.983878 225.193176,516.465513 C232.134696,509.526751 237.123216,501.328405 241.520256,492.710198 C248.205096,479.606103 254.700216,466.402567 257.110776,451.762663 C259.487856,437.255347 254.789496,425.499228 242.089416,417.289833 C238.797216,415.157379 235.359936,413.290101 231.732936,411.798488 C209.881656,402.85986 187.059456,399.346283 169.460136,399.589361 M416.263536,400.186006 C398.441016,400.36279 382.817016,401.533982 367.483176,405.25749 C356.278536,407.97554 345.274776,411.179745 335.442816,417.411372 C327.117456,422.681737 321.158016,429.664695 319.774176,439.686124 C318.959496,445.608379 319.439376,451.541683 320.923656,457.298204 C325.800576,476.125673 333.701856,493.66041 345.352896,509.294723 C356.256216,523.945675 370.753056,533.989202 388.609056,538.784461 C410.683536,544.717765 432.869616,544.596226 454.932936,538.68502 C474.440616,533.45885 487.877256,521.437556 495.198216,502.742675 C497.374416,497.218183 499.104216,491.583201 500.711256,485.881926 C505.085976,470.258662 508.233096,454.458615 507.507696,438.117168 C507.072456,428.449307 502.764696,420.902851 494.751816,415.400457 C489.796776,411.99737 484.294896,409.699181 478.491696,408.174421 C457.432776,402.649929 435.871656,400.871043 416.263536,400.186006 M142.073496,388.982336 C170.185536,389.965696 198.040896,393.379832 225.539136,399.313136 C245.069136,403.522799 264.643776,407.423091 284.742936,407.666168 C303.547536,407.898197 322.106616,405.456371 340.576416,402.307411 C362.271456,398.606001 383.832576,394.131163 405.661536,391.247378 C425.135736,388.672965 444.531816,388.750308 464.050656,391.435211 C483.524856,394.120114 502.664256,398.009356 521.613936,403.125036 C525.296736,404.119444 529.169256,404.318326 532.907856,405.147 C538.153056,406.307143 540.016776,408.782116 539.380656,414.052481 C538.833816,418.659907 538.945416,423.189991 539.369496,427.786368 C539.715456,431.664561 538.911936,434.879816 534.738096,436.934927 C530.129016,439.199968 527.383656,443.509072 525.107016,447.983911 C520.721136,456.657363 518.600736,466.082146 515.955816,475.319097 C513.522936,483.804717 511.357896,492.35663 508.288896,500.643368 C499.773816,523.636304 483.524856,539.138028 460.356696,546.872317 C429.633216,557.136823 399.065976,555.733602 369.358056,542.59636 C346.948776,532.685422 332.474256,515.139635 322.586496,493.406284 C318.401496,484.224578 315.354816,474.623011 311.995656,465.142983 C310.299336,460.369822 308.290536,455.773444 305.221536,451.68532 C302.465016,447.99496 298.960776,445.829359 294.161976,445.763065 C289.619856,445.696771 285.088896,445.111175 280.535616,445.785163 C276.841656,446.337612 274.073976,448.072302 272.132136,451.221263 C269.208216,455.950228 267.266376,461.076957 265.949496,466.391518 C261.117216,485.760387 251.854416,502.842116 239.477976,518.476428 C225.304776,536.39788 207.058176,547.546305 184.436856,551.225617 C159.750936,555.225349 135.377496,553.733736 111.584376,545.64588 C107.198496,544.143218 103.013496,542.176499 98.873136,540.121388 C87.891696,534.685288 80.135496,526.409599 75.202776,515.228027 C67.145256,497.008252 59.835456,478.556449 55.070136,459.209678 C53.239896,451.806859 49.757976,445.464742 44.044056,440.249622 C39.557736,436.161498 35.484336,431.642463 34.412976,425.344542 C33.687576,421.046488 33.966576,416.693188 34.145136,412.384084 C34.223256,410.439463 34.357176,408.494842 34.200936,406.56127 C34.055856,404.682943 34.770096,403.865318 36.656136,403.611191 C51.766776,401.55608 66.564936,397.920964 81.530496,395.081375 C96.607656,392.219689 111.740616,389.822059 127.085616,388.982336 C132.062976,388.706112 137.073816,388.960238 142.073496,388.982336" id="Fill-40" fill="#000000"></path>
            <path d="M75.1137755,88.4722222 C67.5821671,82.0918778 62.7974277,72.5402318 62.7974277,61.8654204 C62.7974277,42.6558042 78.291845,27.0833333 97.4051774,27.0833333 C110.219243,27.0833333 121.406713,34.0826971 127.389068,44.4848771 C107.388599,55.8470933 89.6746488,70.7998493 75.1137755,88.4722222 Z" id="Combined-Shape-Copy-13" fill="#D8D8D8"></path>
            <path d="M437.306729,87.8918419 C429.775121,81.5114974 424.990381,71.9598514 424.990381,61.2850401 C424.990381,42.0754238 440.484799,26.502953 459.598131,26.502953 C472.412197,26.502953 483.599667,33.5023168 489.582021,43.9044967 C469.581553,55.2667129 451.867603,70.219469 437.306729,87.8918419 Z" id="Combined-Shape-Copy-14" fill="#D8D8D8" transform="translate(457.286201, 57.197397) rotate(80.000000) translate(-457.286201, -57.197397) "></path>
        </g>
    </g>
</svg>